# xmcd CD database file
# Copyright (C) 1997 Ti Kan
# 
# Track frame offsets:
#     150
#     18820
#     40052
#     59550
# 
# Disc length: 1205 seconds
# 
# Revision: 1
# Processed by: cddbd v1.4b41PL1 Copyright (c) Steve Scherf et al.
# Submitted via: DiscPlay 4.0.3
# 
DISCID=2904b304
DTITLE=Mariah Carey - Someday 4 Track US promo
DYEAR=1900
DGENRE=
TTITLE0=Someday-Album Version
TTITLE1=Someday-New 7 Jackswing
TTITLE2=Someday-New 7 Straight
TTITLE3=Someday New 12 House
EXTD=
EXTT0=
EXTT1=
EXTT2=
EXTT3=
PLAYORDER=
